<?xml version="1.0" encoding="utf-8"?>
<!-- Generator: Adobe Illustrator 26.3.1, SVG Export Plug-In . SVG Version: 6.00 Build 0)  -->
<svg version="1.1" id="Layer_1" xmlns="http://www.w3.org/2000/svg" xmlns:xlink="http://www.w3.org/1999/xlink" x="0px" y="0px"
	 viewBox="0 0 359 55" style="enable-background:new 0 0 359 55;" xml:space="preserve">
<style type="text/css">
	.st0{fill:#333333;}
	.st1{fill:#7979DD;}
	.st2{fill:#CAB3F5;}
	.st3{fill:#B8FBF6;}
	.st4{fill:#EECBC0;}
	.st5{fill:#87A9F0;}
</style>
<g>
	<path class="st0" d="M21.9,30.6H11.3v7.5h12.6v5.8H4.5V12.7h19.4v5.8H11.3v6.6H22v5.5H21.9z"/>
	<path class="st0" d="M49,18.5h-8.4v25.4h-6.8V18.5h-8.3v-5.8H49V18.5z"/>
	<path class="st0" d="M75.4,43.9h-6.7v-13h-10v13h-6.8V12.7h6.8v12.4h10V12.7h6.7V43.9z"/>
	<path class="st0" d="M105.5,38.1h-9.3l-1.6,5.8h-7.2l10.3-31.2h6.4l10.4,31.2h-7.3L105.5,38.1z M97.8,32.2h6l-3-10.8L97.8,32.2z"/>
	<path class="st0" d="M138.1,12.7v20.4c0,2.3-0.4,4.3-1.3,6c-0.9,1.7-2.2,3-3.8,3.9c-1.7,0.9-3.6,1.3-5.9,1.3c-3.4,0-6.1-1-8.1-3
		s-3-4.7-3-8.1V12.7h6.8v20.7c0.1,3.4,1.5,5.1,4.3,5.1c1.4,0,2.5-0.4,3.2-1.3c0.7-0.9,1.1-2.3,1.1-4.2V12.7H138.1z"/>
	<path class="st0" d="M164.4,18.5H156v25.4h-6.8V18.5h-8.3v-5.8h23.5V18.5z"/>
	<path class="st0" d="M190.5,28.9c0,3-0.5,5.7-1.5,8.1c-1,2.3-2.5,4.1-4.3,5.4c-1.9,1.3-4,1.9-6.4,1.9s-4.5-0.6-6.4-1.8
		s-3.3-3-4.3-5.2c-1-2.3-1.6-4.9-1.6-7.8v-1.8c0-3.1,0.5-5.8,1.5-8.1s2.5-4.1,4.3-5.4c1.9-1.3,4-1.9,6.4-1.9s4.5,0.6,6.4,1.9
		s3.3,3,4.4,5.4c1,2.3,1.6,5,1.6,8L190.5,28.9L190.5,28.9z M183.6,27.6c0-3.1-0.5-5.5-1.4-7.1s-2.3-2.4-4-2.4
		c-3.4,0-5.2,2.8-5.4,8.5v2.3c0,3.1,0.5,5.4,1.4,7.1c0.9,1.6,2.3,2.5,4.1,2.5c1.7,0,3-0.8,4-2.4c0.9-1.6,1.4-3.9,1.4-7v-1.5
		C183.7,27.6,183.6,27.6,183.6,27.6z"/>
	<path class="st0" d="M202.9,12.7l6.3,21.7l6.3-21.7h8.9v31.2h-6.8v-7.3l0.7-14.9l-6.8,22.2H207l-6.8-22.2l0.7,14.9v7.3H194V12.7
		H202.9z"/>
	<path class="st0" d="M235.9,43.9h-6.8V12.7h6.8V43.9z"/>
	<path class="st0" d="M264,43.9h-6.7l-10-19.4v19.4h-6.8V12.7h6.8l9.9,19.4V12.7h6.8L264,43.9L264,43.9z"/>
	<path class="st0" d="M285.8,30.6h-10.7v7.5h12.6v5.8h-19.4V12.7h19.4v5.8h-12.6v6.6h10.7V30.6z"/>
	<path class="st0" d="M300.9,32.8h-3.7v11h-6.8V12.7h11.1c3.3,0,5.9,0.8,7.8,2.5c1.9,1.6,2.8,4,2.8,7c0,2.2-0.4,4-1.2,5.4
		c-0.8,1.4-2,2.6-3.7,3.5l5.9,12.6V44h-7.3L300.9,32.8z M297.2,27.1h4.3c1.3,0,2.3-0.4,2.9-1.1c0.7-0.8,1-1.8,1-3.2
		c0-1.3-0.3-2.4-1-3.2c-0.7-0.8-1.6-1.2-2.9-1.2h-4.3V27.1z"/>
</g>
<g transform="translate(0.000000,2228.000000) scale(0.100000,-0.100000)">
	<g id="XMLID_00000054229607073652531840000010022621601283760309_">
		<g>
			<path class="st1" d="M3538.9,21989.5c0.2-0.8-0.4-1.9-1.1-2.4c-0.3-0.2-28.5-16.3-62.6-35.6c-34.1-19.4-65.4-37.2-69.5-39.6
				c-4.2-2.4-7.8-4.4-8.1-4.4c-0.4-0.1-0.8,0.1-1.6,0.5c-2.9,1.6-138.8,78.9-139.2,79.3c-0.7,0.5-1.1,1.6-1,2.3
				c0.1,0.3,0.3,0.8,0.6,1.2c0.2,0.4,31.6,49.6,69.6,109.3c38,59.7,69.4,108.8,69.6,109.1c0.2,0.3,0.7,0.6,1,0.7
				c1,0.3,2.2-0.1,2.7-1c1-1.5,138-216.6,138.6-217.6C3538.5,21990.5,3538.9,21989.7,3538.9,21989.5z M3530.9,21988.6
				c0,0.2-16.3,7.6-65.2,29.3c-36,16-65.6,29.1-65.7,29.2c-0.2,0-0.3-8.4-0.3-66.4c0-44.9,0.1-66.5,0.2-66.5
				C3400.1,21914.1,3530.6,21988.3,3530.9,21988.6z M3530.2,21994.6c0,0.1-29.2,46.1-65,102.2c-35.8,56.2-65.2,102.2-65.3,102.3
				c-0.1,0.1-0.2-27.8-0.1-73.2l0.1-73.4l65.1-29C3500.7,22007.6,3530,21994.6,3530.2,21994.6z M3394.9,22125.7
				c0,40.3,0,73.3,0,73.3c-0.1,0-130.3-204.4-130.2-204.4c0.1,0,29.4,13,65.2,28.9l65.1,28.9L3394.9,22125.7z M3394.8,21914.1
				c0,0,0.1,29.9,0.1,66.5c0,36.6-0.1,66.5-0.1,66.5c-0.5-0.1-131.1-58.3-131-58.4C3263.9,21988.5,3394.7,21914.1,3394.8,21914.1z"
				/>
			<path class="st1" d="M3538.9,21967.5c0-0.7-0.3-1.2-4.1-6.2c-2.3-3-33.5-44.4-69.4-92.1c-35.9-47.6-65.6-87-66-87.5
				c-1.2-1.5-2.8-1.5-4,0c-0.4,0.4-30.6,40.5-67.1,89c-36.6,48.5-67.8,89.9-69.4,92.1c-2.7,3.6-2.9,4-2.9,4.7c0,1,0.5,1.8,1.2,2.2
				c0.8,0.4,1.3,0.4,2.1,0c0.3-0.2,31.5-18.3,69.2-40.2c37.7-21.9,68.8-39.9,68.9-39.9c0.2,0,31.3,18,69.2,40.1
				c37.9,22,69.2,40.1,69.6,40.2c0.6,0.2,0.8,0.1,1.4-0.2C3538.5,21969.3,3538.9,21968.6,3538.9,21967.5z M3527.2,21959.2
				c0.1,0.1,0.1,0.2,0.1,0.2c0,0-28.7-16.7-63.7-37l-63.6-37l-0.1-47.5l0-47.6l1.6,2.1c0.9,1.2,29.5,39.1,63.6,84.3
				C3499.2,21922,3527.1,21959.1,3527.2,21959.2z M3395,21790.4c0.1,0,0.1,21.3,0.1,47.4c0,37.7-0.1,47.4-0.2,47.6
				c-0.1,0.1-28.8,16.8-63.7,37.1c-34.9,20.3-63.6,36.9-63.6,36.9c0,0,0-0.2,0.2-0.4C3268.7,21957.6,3394.8,21790.4,3395,21790.4z"
				/>
			<path class="st2" d="M3527.3,21959.4c0,0,0-0.1-0.1-0.2c-0.1-0.1-28-37.2-62.2-82.5c-34.1-45.2-62.7-83.2-63.6-84.3l-1.6-2.1
				l0,47.6l0.1,47.5l63.6,37C3498.6,21942.8,3527.2,21959.4,3527.3,21959.4z"/>
			<path class="st2" d="M3465.7,22017.9c48.9-21.8,65.2-29.1,65.2-29.3c-0.4-0.3-130.8-74.5-131-74.5c-0.1,0-0.2,21.7-0.2,66.5
				c0,58,0,66.4,0.3,66.4C3400.2,22047.1,3429.7,22033.9,3465.7,22017.9z"/>
			<path class="st3" d="M3465.2,22096.8c35.8-56.1,65-102.1,65-102.2c-0.1,0-29.4,13-65.2,28.9l-65.1,29l-0.1,73.4
				c0,45.4,0,73.3,0.1,73.2C3400,22199,3429.4,22153,3465.2,22096.8z"/>
			<path class="st4" d="M3395.1,21837.8c0-26.1-0.1-47.4-0.1-47.4c-0.1,0-126.3,167.2-127.3,168.7c-0.1,0.2-0.2,0.4-0.2,0.4
				c0,0,28.7-16.6,63.6-36.9c34.9-20.3,63.6-37,63.7-37.1C3395,21885.2,3395.1,21875.5,3395.1,21837.8z"/>
			<path class="st4" d="M3394.8,22199c0,0,0-33,0-73.3l0-73.3l-65.1-28.9c-35.7-15.9-65-28.9-65.2-28.9
				C3264.6,21994.7,3394.8,22199,3394.8,22199z"/>
			<path class="st5" d="M3394.9,21980.6c0-36.6,0-66.5-0.1-66.5c-0.1,0-130.9,74.4-131,74.6c-0.1,0.1,130.5,58.3,131,58.4
				C3394.8,22047.1,3394.9,22017.2,3394.9,21980.6z"/>
		</g>
		<g>
		</g>
	</g>
</g>
</svg>
